<svg xmlns="http://www.w3.org/2000/svg" width="30" height="30" viewBox="-2 -2 26 26"><path fill="#5F9CE7" d="M6.8087203,7.842566 L4.8572495,7.832847 L4.8572495,4.643343 L7,4.643343 L7,2 L4.1036285,2 C2.9538599,2 2.0131402,2.874636 2.0131402,3.943635 L2.0131402,7.81827 L0,7.80758 L3.4043602,11 L6.8087203,7.842566 Z M17.4511845,9 L14.0410621,12.108744 L16.1427342,12.113514 L16.1427342,15.404451 L13.8602618,15.404451 L13.8602618,18 L16.8962427,18 C18.0458396,18 18.9864189,17.141494 18.9864189,16.09221 L18.9864189,12.119237 L20.8602618,12.123052 L17.4511845,9 Z M7.826449,15.405814 L4.648032,15.405814 L4.648032,13.419016 L2,13.419016 L2,16.069922 C2,17.083124 2.875865,17.912108 3.9463668,17.912108 L7.8118512,17.912108 L7.8030926,19.395989 L11,16.395989 L7.8381272,13.395989 L7.826449,15.405814 Z M16.3531128,7 L19,7 L19,4.081508 C19,2.934138 18.1245136,1.995381 17.0544747,1.995381 L13.1809339,1.995381 L13.1848249,0 L10,3.403517 L13.1702335,6.807033 L13.1741245,4.832514 L16.3531128,4.832514 L16.3531128,7 Z"/></svg>